<svg version="1.1" viewBox="0.0 0.0 383.3228346456693 353.87664041994753" fill="none" stroke="none" stroke-linecap="square" stroke-miterlimit="10" xmlns:xlink="http://www.w3.org/1999/xlink" xmlns="http://www.w3.org/2000/svg"><clipPath id="p.0"><path d="m0 0l383.32285 0l0 353.87665l-383.32285 0l0 -353.87665z" clip-rule="nonzero"/></clipPath><g clip-path="url(#p.0)"><path fill="#000000" fill-opacity="0.0" d="m0 0l383.32285 0l0 353.87665l-383.32285 0z" fill-rule="evenodd"/><path fill="#ff9900" d="m64.901855 292.11172l79.00249 0c10.349548 0 18.739502 9.274689 18.739502 20.715576c0 11.440918 -8.389954 20.715607 -18.739502 20.715607l-79.00249 0c-10.349537 0 -18.739494 -9.274689 -18.739494 -20.715607c0 -11.440887 8.389957 -20.715576 18.739494 -20.715576z" fill-rule="evenodd"/><path stroke="#000000" stroke-width="1.0" stroke-linejoin="round" stroke-linecap="butt" d="m64.901855 292.11172l79.00249 0c10.349548 0 18.739502 9.274689 18.739502 20.715576c0 11.440918 -8.389954 20.715607 -18.739502 20.715607l-79.00249 0c-10.349537 0 -18.739494 -9.274689 -18.739494 -20.715607c0 -11.440887 8.389957 -20.715576 18.739494 -20.715576z" fill-rule="evenodd"/><path fill="#93c47d" d="m69.40752 295.62878l69.99158 0c9.169098 0 16.602112 7.699707 16.602112 17.197784c0 9.498077 -7.433014 17.197815 -16.602112 17.197815l-69.99158 0c-9.169086 0 -16.602097 -7.6997375 -16.602097 -17.197815c0 -9.498077 7.43301 -17.197784 16.602097 -17.197784z" fill-rule="evenodd"/><path stroke="#000000" stroke-width="1.0" stroke-linejoin="round" stroke-linecap="butt" d="m69.40752 295.62878l69.99158 0c9.169098 0 16.602112 7.699707 16.602112 17.197784c0 9.498077 -7.433014 17.197815 -16.602112 17.197815l-69.99158 0c-9.169086 0 -16.602097 -7.6997375 -16.602097 -17.197815c0 -9.498077 7.43301 -17.197784 16.602097 -17.197784z" fill-rule="evenodd"/><path fill="#000000" d="m70.905624 316.5666l0 -7.625l5.515625 0l0 0.890625l-4.5 0l0 2.34375l4.21875 0l0 0.890625l-4.21875 0l0 2.59375l4.671875 0l0 0.90625l-5.6875 0zm7.0607605 0l0 -7.625l1.515625 0l1.796875 5.390625q0.25 0.765625 0.375 1.140625q0.125 -0.421875 0.40625 -1.234375l1.828125 -5.296875l1.34375 0l0 7.625l-0.96875 0l0 -6.390625l-2.21875 6.390625l-0.90625 0l-2.203125 -6.5l0 6.5l-0.96875 0zm8.9236145 0l0 -7.625l5.515625 0l0 0.890625l-4.5 0l0 2.34375l4.21875 0l0 0.890625l-4.21875 0l0 2.59375l4.671875 0l0 0.90625l-5.6875 0zm7.1076355 0l0 -7.625l3.375 0q1.015625 0 1.546875 0.203125q0.53125 0.203125 0.84375 0.734375q0.328125 0.515625 0.328125 1.140625q0 0.8125 -0.53125 1.375q-0.515625 0.546875 -1.625 0.703125q0.40625 0.1875 0.609375 0.375q0.453125 0.40625 0.84375 1.015625l1.328125 2.078125l-1.265625 0l-1.015625 -1.59375q-0.4375 -0.6875 -0.734375 -1.046875q-0.28125 -0.359375 -0.515625 -0.5q-0.21875 -0.15625 -0.453125 -0.203125q-0.171875 -0.046875 -0.5625 -0.046875l-1.171875 0l0 3.390625l-1.0 0zm1.0 -4.265625l2.171875 0q0.6875 0 1.078125 -0.140625q0.390625 -0.140625 0.59375 -0.453125q0.203125 -0.3125 0.203125 -0.6875q0 -0.546875 -0.390625 -0.890625q-0.390625 -0.34375 -1.234375 -0.34375l-2.421875 0l0 2.515625zm10.242477 1.28125l0 -0.90625l3.234375 0l0 2.828125q-0.75 0.59375 -1.546875 0.890625q-0.78125 0.296875 -1.609375 0.296875q-1.125 0 -2.046875 -0.46875q-0.921875 -0.484375 -1.390625 -1.390625q-0.46875 -0.921875 -0.46875 -2.046875q0 -1.109375 0.46875 -2.078125q0.46875 -0.96875 1.34375 -1.4375q0.875 -0.46875 2.015625 -0.46875q0.828125 0 1.484375 0.28125q0.671875 0.265625 1.046875 0.75q0.390625 0.46875 0.59375 1.234375l-0.921875 0.25q-0.171875 -0.578125 -0.421875 -0.90625q-0.25 -0.34375 -0.734375 -0.53125q-0.46875 -0.203125 -1.046875 -0.203125q-0.6875 0 -1.203125 0.21875q-0.5 0.203125 -0.8125 0.546875q-0.296875 0.34375 -0.46875 0.75q-0.296875 0.703125 -0.296875 1.53125q0 1.03125 0.34375 1.71875q0.359375 0.671875 1.03125 1.015625q0.671875 0.328125 1.421875 0.328125q0.65625 0 1.28125 -0.25q0.625 -0.25 0.953125 -0.546875l0 -1.40625l-2.25 0zm4.7418976 2.984375l0 -7.625l5.515625 0l0 0.890625l-4.5 0l0 2.34375l4.21875 0l0 0.890625l-4.21875 0l0 2.59375l4.671875 0l0 0.90625l-5.6875 0zm7.0763855 0l0 -7.625l1.03125 0l4.0156326 5.984375l0 -5.984375l0.96875 0l0 7.625l-1.046875 0l-4.0000076 -6.0l0 6.0l-0.96875 0zm13.148727 -2.671875l1.015625 0.25q-0.328125 1.25 -1.15625 1.90625q-0.8125 0.640625 -2.015625 0.640625q-1.2343674 0 -1.9999924 -0.5q-0.765625 -0.5 -1.171875 -1.453125q-0.40625 -0.953125 -0.40625 -2.046875q0 -1.1875 0.453125 -2.078125q0.453125 -0.890625 1.296875 -1.34375q0.84375 -0.46875 1.8437424 -0.46875q1.15625 0 1.9375 0.59375q0.78125 0.578125 1.078125 1.640625l-0.984375 0.234375q-0.265625 -0.84375 -0.78125 -1.21875q-0.5 -0.375 -1.265625 -0.375q-0.8749924 0 -1.4687424 0.421875q-0.59375 0.421875 -0.828125 1.140625q-0.234375 0.703125 -0.234375 1.453125q0 0.96875 0.28125 1.703125q0.28125 0.71875 0.875 1.078125q0.59375 0.359375 1.296875 0.359375q0.8437424 0 1.4374924 -0.484375q0.59375 -0.5 0.796875 -1.453125zm4.3987274 2.671875l0 -3.234375l-2.9375 -4.390625l1.234375 0l1.5 2.296875q0.40625 0.640625 0.765625 1.296875q0.34375 -0.609375 0.84375 -1.359375l1.46875 -2.234375l1.1875 0l-3.046875 4.390625l0 3.234375l-1.015625 0z" fill-rule="nonzero"/><path fill="#ff9900" d="m64.901855 201.00937l79.00249 0c10.349548 0 18.739502 9.274673 18.739502 20.715591c0 11.440903 -8.389954 20.715591 -18.739502 20.715591l-79.00249 0c-10.349537 0 -18.739494 -9.274689 -18.739494 -20.715591c0 -11.440918 8.389957 -20.715591 18.739494 -20.715591z" fill-rule="evenodd"/><path stroke="#000000" stroke-width="1.0" stroke-linejoin="round" stroke-linecap="butt" d="m64.901855 201.00937l79.00249 0c10.349548 0 18.739502 9.274673 18.739502 20.715591c0 11.440903 -8.389954 20.715591 -18.739502 20.715591l-79.00249 0c-10.349537 0 -18.739494 -9.274689 -18.739494 -20.715591c0 -11.440918 8.389957 -20.715591 18.739494 -20.715591z" fill-rule="evenodd"/><path fill="#93c47d" d="m69.40752 204.52643l69.99158 0c9.169098 0 16.602112 7.699707 16.602112 17.197784c0 9.498093 -7.433014 17.1978 -16.602112 17.1978l-69.99158 0c-9.169086 0 -16.602097 -7.699707 -16.602097 -17.1978c0 -9.498077 7.43301 -17.197784 16.602097 -17.197784z" fill-rule="evenodd"/><path stroke="#000000" stroke-width="1.0" stroke-linejoin="round" stroke-linecap="butt" d="m69.40752 204.52643l69.99158 0c9.169098 0 16.602112 7.699707 16.602112 17.197784c0 9.498093 -7.433014 17.1978 -16.602112 17.1978l-69.99158 0c-9.169086 0 -16.602097 -7.699707 -16.602097 -17.1978c0 -9.498077 7.43301 -17.197784 16.602097 -17.197784z" fill-rule="evenodd"/><path fill="#000000" d="m86.89 225.46422l0 -7.625l3.375 0q1.015625 0 1.546875 0.203125q0.53125 0.203125 0.84375 0.734375q0.328125 0.515625 0.328125 1.140625q0 0.8125 -0.53125 1.375q-0.515625 0.546875 -1.625 0.703125q0.40625 0.1875 0.609375 0.375q0.453125 0.40625 0.84375 1.015625l1.328125 2.078125l-1.265625 0l-1.015625 -1.59375q-0.4375 -0.6875 -0.734375 -1.046875q-0.28125 -0.359375 -0.515625 -0.5q-0.21875 -0.15625 -0.453125 -0.203125q-0.171875 -0.046875 -0.5625 -0.046875l-1.171875 0l0 3.390625l-1.0 0zm1.0 -4.265625l2.171875 0q0.6875 0 1.078125 -0.140625q0.390625 -0.140625 0.59375 -0.453125q0.203125 -0.3125 0.203125 -0.6875q0 -0.546875 -0.390625 -0.890625q-0.390625 -0.34375 -1.234375 -0.34375l-2.421875 0l0 2.515625zm6.6956024 4.265625l0 -7.625l5.515625 0l0 0.890625l-4.5 0l0 2.34375l4.21875 0l0 0.890625l-4.21875 0l0 2.59375l4.671875 0l0 0.90625l-5.6875 0zm6.2482605 0l2.921875 -7.625l1.09375 0l3.125 7.625l-1.15625 0l-0.890625 -2.3125l-3.1875 0l-0.828125 2.3125l-1.078125 0zm2.203125 -3.125l2.578125 0l-0.796875 -2.125q-0.359375 -0.953125 -0.53125 -1.578125q-0.15625 0.734375 -0.421875 1.453125l-0.828125 2.25zm5.7482605 3.125l0 -7.625l2.625 0q0.890625 0 1.359375 0.109375q0.65625 0.140625 1.109375 0.546875q0.609375 0.5 0.90625 1.296875q0.296875 0.796875 0.296875 1.8125q0 0.875 -0.203125 1.546875q-0.203125 0.671875 -0.515625 1.109375q-0.3125 0.4375 -0.703125 0.6875q-0.375 0.25 -0.90625 0.390625q-0.53125 0.125 -1.21875 0.125l-2.75 0zm1.0 -0.90625l1.625 0q0.765625 0 1.1875 -0.140625q0.4375 -0.140625 0.6875 -0.390625q0.359375 -0.359375 0.5625 -0.953125q0.203125 -0.609375 0.203125 -1.484375q0 -1.1875 -0.40625 -1.828125q-0.390625 -0.65625 -0.953125 -0.875q-0.40625 -0.15625 -1.296875 -0.15625l-1.609375 0l0 5.828125zm8.836227 0.90625l0 -3.234375l-2.9375 -4.390625l1.234375 0l1.5 2.296875q0.40625 0.640625 0.765625 1.296875q0.34375 -0.609375 0.84375 -1.359375l1.46875 -2.234375l1.1875076 0l-3.0468826 4.390625l0 3.234375l-1.015625 0z" fill-rule="nonzero"/><path fill="#ff9900" d="m64.901855 119.22196l79.00249 0c10.349548 0 18.739502 9.274681 18.739502 20.715584c0 11.440918 -8.389954 20.715591 -18.739502 20.715591l-79.00249 0c-10.349537 0 -18.739494 -9.274673 -18.739494 -20.715591c0 -11.440903 8.389957 -20.715584 18.739494 -20.715584z" fill-rule="evenodd"/><path stroke="#000000" stroke-width="1.0" stroke-linejoin="round" stroke-linecap="butt" d="m64.901855 119.22196l79.00249 0c10.349548 0 18.739502 9.274681 18.739502 20.715584c0 11.440918 -8.389954 20.715591 -18.739502 20.715591l-79.00249 0c-10.349537 0 -18.739494 -9.274673 -18.739494 -20.715591c0 -11.440903 8.389957 -20.715584 18.739494 -20.715584z" fill-rule="evenodd"/><path fill="#93c47d" d="m69.40752 122.73902l69.99158 0c9.169098 0 16.602112 7.6997147 16.602112 17.197792c0 9.498077 -7.433014 17.1978 -16.602112 17.1978l-69.99158 0c-9.169086 0 -16.602097 -7.6997223 -16.602097 -17.1978c0 -9.498077 7.43301 -17.197792 16.602097 -17.197792z" fill-rule="evenodd"/><path stroke="#000000" stroke-width="1.0" stroke-linejoin="round" stroke-linecap="butt" d="m69.40752 122.73902l69.99158 0c9.169098 0 16.602112 7.6997147 16.602112 17.197792c0 9.498077 -7.433014 17.1978 -16.602112 17.1978l-69.99158 0c-9.169086 0 -16.602097 -7.6997223 -16.602097 -17.1978c0 -9.498077 7.43301 -17.197792 16.602097 -17.197792z" fill-rule="evenodd"/><path fill="#000000" d="m79.05406 143.67682l0 -7.625l1.0 0l0 7.625l-1.0 0zm2.7731476 0l0 -7.625l1.03125 0l4.015625 5.984375l0 -5.984375l0.96875 0l0 7.625l-1.046875 0l-4.0 -6.0l0 6.0l-0.96875 0zm7.8831024 0l0 -7.625l1.0 0l0 7.625l-1.0 0zm4.7262726 0l0 -6.734375l-2.515625 0l0 -0.890625l6.046875 0l0 0.890625l-2.53125 0l0 6.734375l-1.0 0zm4.743637 0l0 -7.625l1.0 0l0 7.625l-1.0 0zm1.9450226 0l2.921875 -7.625l1.09375 0l3.125 7.625l-1.15625 0l-0.890625 -2.3125l-3.1875 0l-0.828125 2.3125l-1.078125 0zm2.203125 -3.125l2.578125 0l-0.796875 -2.125q-0.359375 -0.953125 -0.53125 -1.578125q-0.15625 0.734375 -0.421875 1.453125l-0.828125 2.25zm5.7013855 3.125l0 -7.625l1.015625 0l0 6.71875l3.75 0l0 0.90625l-4.765625 0zm6.1452484 0l0 -7.625l1.0 0l0 7.625l-1.0 0zm2.1793976 0l0 -0.9375l3.90625 -4.890625q0.40625 -0.515625 0.7812576 -0.90625l-4.2500076 0l0 -0.890625l5.4687576 0l0 0.890625l-4.2812576 5.296875l-0.46875 0.53125l4.8750076 0l0 0.90625l-6.0312576 0zm7.1342697 0l0 -7.625l5.5156174 0l0 0.890625l-4.4999924 0l0 2.34375l4.2187424 0l0 0.890625l-4.2187424 0l0 2.59375l4.6718674 0l0 0.90625l-5.6874924 0z" fill-rule="nonzero"/><path fill="#ff9900" d="m246.79031 201.02512l79.00247 0c10.349548 0 18.739502 9.274689 18.739502 20.715591c0 11.440903 -8.389954 20.715591 -18.739502 20.715591l-79.00247 0c-10.349548 0 -18.739502 -9.274689 -18.739502 -20.715591c0 -11.440903 8.389954 -20.715591 18.739502 -20.715591z" fill-rule="evenodd"/><path stroke="#000000" stroke-width="1.0" stroke-linejoin="round" stroke-linecap="butt" d="m246.79031 201.02512l79.00247 0c10.349548 0 18.739502 9.274689 18.739502 20.715591c0 11.440903 -8.389954 20.715591 -18.739502 20.715591l-79.00247 0c-10.349548 0 -18.739502 -9.274689 -18.739502 -20.715591c0 -11.440903 8.389954 -20.715591 18.739502 -20.715591z" fill-rule="evenodd"/><path fill="#93c47d" d="m251.29597 204.54218l69.99156 0c9.169098 0 16.602112 7.699707 16.602112 17.197784c0 9.498093 -7.433014 17.1978 -16.602112 17.1978l-69.99156 0c-9.169098 0 -16.602112 -7.699707 -16.602112 -17.1978c0 -9.498077 7.433014 -17.197784 16.602112 -17.197784z" fill-rule="evenodd"/><path stroke="#000000" stroke-width="1.0" stroke-linejoin="round" stroke-linecap="butt" d="m251.29597 204.54218l69.99156 0c9.169098 0 16.602112 7.699707 16.602112 17.197784c0 9.498093 -7.433014 17.1978 -16.602112 17.1978l-69.99156 0c-9.169098 0 -16.602112 -7.699707 -16.602112 -17.1978c0 -9.498077 7.433014 -17.197784 16.602112 -17.197784z" fill-rule="evenodd"/><path fill="#000000" d="m270.98273 225.47997l0 -7.625l5.140625 0l0 0.890625l-4.125 0l0 2.375l3.578125 0l0 0.890625l-3.578125 0l0 3.46875l-1.015625 0zm5.0300903 0l2.921875 -7.625l1.09375 0l3.125 7.625l-1.15625 0l-0.890625 -2.3125l-3.1875 0l-0.828125 2.3125l-1.078125 0zm2.203125 -3.125l2.578125 0l-0.796875 -2.125q-0.359375 -0.953125 -0.53125 -1.578125q-0.15625 0.734375 -0.421875 1.453125l-0.828125 2.25zm10.7482605 -4.5l1.015625 0l0 4.40625q0 1.140625 -0.265625 1.828125q-0.265625 0.671875 -0.953125 1.09375q-0.671875 0.421875 -1.765625 0.421875q-1.078125 0 -1.765625 -0.359375q-0.671875 -0.375 -0.96875 -1.078125q-0.28125 -0.703125 -0.28125 -1.90625l0 -4.40625l1.0 0l0 4.40625q0 0.984375 0.1875 1.453125q0.1875 0.46875 0.625 0.734375q0.453125 0.25 1.109375 0.25q1.109375 0 1.578125 -0.5q0.484375 -0.515625 0.484375 -1.9375l0 -4.40625zm2.6487427 7.625l0 -7.625l1.015625 0l0 6.71875l3.75 0l0 0.90625l-4.765625 0zm7.1192017 0l0 -6.734375l-2.515625 0l0 -0.890625l6.046875 0l0 0.890625l-2.53125 0l0 6.734375l-1.0 0z" fill-rule="nonzero"/><path fill="#000000" fill-opacity="0.0" d="m126.91601 161.59317l0 39.05513" fill-rule="evenodd"/><path stroke="#000000" stroke-width="1.0" stroke-linejoin="round" stroke-linecap="butt" d="m126.91601 161.59317l0 33.05513" fill-rule="evenodd"/><path fill="#000000" stroke="#000000" stroke-width="1.0" stroke-linecap="butt" d="m125.264275 194.6483l1.6517334 4.538086l1.651741 -4.538086z" fill-rule="evenodd"/><path fill="#000000" fill-opacity="0.0" d="m81.56431 201.43307l-0.7874069 -39.086624" fill-rule="evenodd"/><path stroke="#000000" stroke-width="1.0" stroke-linejoin="round" stroke-linecap="butt" d="m81.56431 201.43307l-0.6665573 -33.087845" fill-rule="evenodd"/><path fill="#000000" stroke="#000000" stroke-width="1.0" stroke-linecap="butt" d="m82.54915 168.31197l-1.7427979 -4.5039062l-1.5599976 4.57045z" fill-rule="evenodd"/><path fill="#000000" fill-opacity="0.0" d="m162.64384 221.72496l72.06299 0" fill-rule="evenodd"/><path stroke="#000000" stroke-width="1.0" stroke-linejoin="round" stroke-linecap="butt" d="m162.64384 221.72496l66.06299 0" fill-rule="evenodd"/><path fill="#000000" stroke="#000000" stroke-width="1.0" stroke-linecap="butt" d="m228.70683 223.3767l4.538101 -1.6517334l-4.538101 -1.6517334z" fill-rule="evenodd"/><path fill="#000000" fill-opacity="0.0" d="m104.40331 238.92201l0 56.692917" fill-rule="evenodd"/><path stroke="#000000" stroke-width="1.0" stroke-linejoin="round" stroke-linecap="butt" d="m104.403305 238.92201l0 50.692917" fill-rule="evenodd"/><path fill="#000000" stroke="#000000" stroke-width="1.0" stroke-linecap="butt" d="m102.75157 289.61493l1.6517334 4.538086l1.6517334 -4.538086z" fill-rule="evenodd"/><path fill="#000000" fill-opacity="0.0" d="m162.64384 139.93755l123.65355 0l0 64.598434" fill-rule="evenodd"/><path stroke="#000000" stroke-width="1.0" stroke-linejoin="round" stroke-linecap="butt" d="m162.64384 139.93755l123.65355 0l0 58.598434" fill-rule="evenodd"/><path fill="#000000" stroke="#000000" stroke-width="1.0" stroke-linecap="butt" d="m284.64566 198.53598l1.6517334 4.538101l1.6517334 -4.538101z" fill-rule="evenodd"/><path fill="#000000" fill-opacity="0.0" d="m52.80542 312.82657l-37.69256 0l0 -172.88188l37.75555 0" fill-rule="evenodd"/><path stroke="#000000" stroke-width="1.0" stroke-linejoin="round" stroke-linecap="butt" d="m52.80542 312.8266l-37.69256 0l0 -172.88191l31.75555 0" fill-rule="evenodd"/><path fill="#000000" stroke="#000000" stroke-width="1.0" stroke-linecap="butt" d="m46.868412 141.59642l4.5380974 -1.6517334l-4.5380974 -1.6517334z" fill-rule="evenodd"/><path fill="#ff9900" d="m81.72572 34.12861c0 -12.515554 10.152908 -22.661417 22.677162 -22.661417c6.0143585 0 11.782387 2.387535 16.03518 6.637375c4.2527924 4.24984 6.6419907 10.013861 6.6419907 16.024042c0 12.515556 -10.152916 22.661419 -22.67717 22.661419c-12.524254 0 -22.677162 -10.145863 -22.677162 -22.661419z" fill-rule="evenodd"/><path stroke="#000000" stroke-width="1.0" stroke-linejoin="round" stroke-linecap="butt" d="m81.72572 34.12861c0 -12.515554 10.152908 -22.661417 22.677162 -22.661417c6.0143585 0 11.782387 2.387535 16.03518 6.637375c4.2527924 4.24984 6.6419907 10.013861 6.6419907 16.024042c0 12.515556 -10.152916 22.661419 -22.67717 22.661419c-12.524254 0 -22.677162 -10.145863 -22.677162 -22.661419z" fill-rule="evenodd"/><path fill="#93c47d" d="m87.59974 34.12861c0 -9.497559 7.5230255 -17.19685 16.803146 -17.19685c4.4564743 0 8.730423 1.8118057 11.881622 5.0368404c3.1511993 3.2250347 4.9215317 7.599121 4.9215317 12.160009c0 9.497559 -7.5230255 17.19685 -16.803154 17.19685c-9.280121 0 -16.803146 -7.699291 -16.803146 -17.19685z" fill-rule="evenodd"/><path stroke="#000000" stroke-width="1.0" stroke-linejoin="round" stroke-linecap="butt" d="m87.59974 34.12861c0 -9.497559 7.5230255 -17.19685 16.803146 -17.19685c4.4564743 0 8.730423 1.8118057 11.881622 5.0368404c3.1511993 3.2250347 4.9215317 7.599121 4.9215317 12.160009c0 9.497559 -7.5230255 17.19685 -16.803154 17.19685c-9.280121 0 -16.803146 -7.699291 -16.803146 -17.19685z" fill-rule="evenodd"/><path fill="#000000" d="m102.11501 35.866108l1.203125 -0.109375q0.078125 0.71875 0.390625 1.1875q0.3125 0.453125 0.953125 0.734375q0.65625 0.28125 1.46875 0.28125q0.71875 0 1.265625 -0.21875q0.5625 -0.21875 0.828125 -0.578125q0.265625 -0.375 0.265625 -0.828125q0 -0.453125 -0.265625 -0.78125q-0.25 -0.328125 -0.84375 -0.5625q-0.390625 -0.15625 -1.703125 -0.46875q-1.3125 -0.3125 -1.84375 -0.59375q-0.671875 -0.359375 -1.015625 -0.890625q-0.328125 -0.53125 -0.328125 -1.1875q0 -0.71875 0.40625 -1.34375q0.40625 -0.625 1.1875 -0.953125q0.796875 -0.328125 1.765625 -0.328125q1.046875 0 1.859375 0.34375q0.8125 0.34375 1.25 1.015625q0.4375 0.65625 0.46875 1.484375l-1.203125 0.09375q-0.109375 -0.90625 -0.671875 -1.359375q-0.5625 -0.46875 -1.65625 -0.46875q-1.140625 0 -1.671875 0.421875q-0.515625 0.421875 -0.515625 1.015625q0 0.515625 0.359375 0.84375q0.375 0.328125 1.90625 0.6875q1.546875 0.34375 2.109375 0.59375q0.84375 0.390625 1.234375 0.984375q0.390625 0.578125 0.390625 1.359375q0 0.75 -0.4375 1.4375q-0.421875 0.671875 -1.25 1.046875q-0.8125 0.359375 -1.828125 0.359375q-1.296875 0 -2.171875 -0.375q-0.875 -0.375 -1.375 -1.125q-0.5 -0.765625 -0.53125 -1.71875z" fill-rule="nonzero"/><path fill="#000000" fill-opacity="0.0" d="m104.402885 51.32546l0 71.40158" fill-rule="evenodd"/><path stroke="#000000" stroke-width="1.0" stroke-linejoin="round" stroke-linecap="butt" d="m104.402885 51.32546l0 65.40158" fill-rule="evenodd"/><path fill="#000000" stroke="#000000" stroke-width="1.0" stroke-linecap="butt" d="m102.75115 116.727036l1.6517334 4.5380936l1.6517334 -4.5380936z" fill-rule="evenodd"/><path fill="#000000" fill-opacity="0.0" d="m201.24934 116.18372l14.771652 0l0 32.314964l-14.771652 0z" fill-rule="evenodd"/><path fill="#000000" d="m212.38037 134.51747l0 0.90625l-5.03125 0q-0.015625 -0.34375 0.109375 -0.65625q0.1875 -0.515625 0.609375 -1.015625q0.421875 -0.5 1.234375 -1.140625q1.234375 -1.03125 1.671875 -1.625q0.4375 -0.59375 0.4375 -1.125q0 -0.5625 -0.40625 -0.9375q-0.390625 -0.390625 -1.03125 -0.390625q-0.671875 0 -1.078125 0.40625q-0.40625 0.40625 -0.40625 1.125l-0.96875 -0.09375q0.09375 -1.078125 0.734375 -1.640625q0.65625 -0.5624924 1.734375 -0.5624924q1.109375 0 1.75 0.6093674q0.640625 0.609375 0.640625 1.5q0 0.46875 -0.1875 0.90625q-0.1875 0.4375 -0.625 0.9375q-0.4375 0.484375 -1.453125 1.328125q-0.828125 0.71875 -1.078125 0.96875q-0.234375 0.25 -0.390625 0.5l3.734375 0z" fill-rule="nonzero"/><path fill="#000000" fill-opacity="0.0" d="m124.66404 164.67323l14.77166 0l0 32.314957l-14.77166 0z" fill-rule="evenodd"/><path fill="#000000" d="m134.40445 183.91322l-0.9375 0l0 -5.96875q-0.34375 0.328125 -0.890625 0.65625q-0.546875 0.3125 -0.984375 0.46875l0 -0.90625q0.796875 -0.359375 1.375 -0.890625q0.59375 -0.53125 0.828125 -1.015625l0.609375 0l0 7.65625z" fill-rule="nonzero"/><path fill="#000000" fill-opacity="0.0" d="m79.238846 168.69554l14.771652 0l0 32.314957l-14.771652 0z" fill-rule="evenodd"/><path fill="#000000" d="m85.46362 185.9199l0.9375 -0.125q0.15625 0.796875 0.546875 1.15625q0.390625 0.34375 0.9375 0.34375q0.65625 0 1.109375 -0.453125q0.46875 -0.46875 0.46875 -1.140625q0 -0.640625 -0.421875 -1.0625q-0.421875 -0.421875 -1.078125 -0.421875q-0.265625 0 -0.65625 0.109375l0.109375 -0.828125q0.09375 0.015625 0.140625 0.015625q0.59375 0 1.078125 -0.3125q0.484375 -0.3125 0.484375 -0.96875q0 -0.515625 -0.359375 -0.84375q-0.34375 -0.34375 -0.890625 -0.34375q-0.546875 0 -0.921875 0.34375q-0.359375 0.34375 -0.453125 1.03125l-0.9375 -0.171875q0.171875 -0.9375 0.78125 -1.453125q0.609375 -0.515625 1.5 -0.515625q0.625 0 1.15625 0.265625q0.53125 0.265625 0.796875 0.734375q0.28125 0.453125 0.28125 0.984375q0 0.484375 -0.265625 0.890625q-0.265625 0.40625 -0.78125 0.65625q0.671875 0.15625 1.046875 0.65625q0.375 0.484375 0.375 1.21875q0 1.0 -0.734375 1.703125q-0.71875 0.6875 -1.828125 0.6875q-1.0 0 -1.671875 -0.59375q-0.65625 -0.609375 -0.75 -1.5625z" fill-rule="nonzero"/><path fill="#000000" fill-opacity="0.0" d="m184.27559 196.4357l14.771652 0l0 32.314957l-14.771652 0z" fill-rule="evenodd"/><path fill="#000000" d="m193.48474 215.67569l0 -1.828125l-3.296875 0l0 -0.859375l3.46875 -4.9375l0.765625 0l0 4.9375l1.03125 0l0 0.859375l-1.03125 0l0 1.828125l-0.9375 0zm0 -2.6875l0 -3.4375l-2.375 3.4375l2.375 0z" fill-rule="nonzero"/><path fill="#000000" fill-opacity="0.0" d="m104.4042 251.11942l14.771652 0l0 32.314972l-14.771652 0z" fill-rule="evenodd"/><path fill="#000000" d="m110.61335 268.35944l0.984375 -0.078125q0.109375 0.71875 0.5 1.078125q0.40625 0.359375 0.96875 0.359375q0.671875 0 1.140625 -0.5q0.46875 -0.515625 0.46875 -1.359375q0 -0.796875 -0.453125 -1.265625q-0.4375 -0.46875 -1.171875 -0.46875q-0.453125 0 -0.8125 0.21875q-0.359375 0.203125 -0.578125 0.53125l-0.875 -0.125l0.734375 -3.921875l3.796875 0l0 0.90625l-3.046875 0l-0.40625 2.046875q0.6875 -0.484375 1.4375 -0.484375q1.0 0 1.6875 0.703125q0.6875 0.6875 0.6875 1.765625q0 1.046875 -0.609375 1.796875q-0.734375 0.921875 -2.0 0.921875q-1.03125 0 -1.703125 -0.578125q-0.65625 -0.578125 -0.75 -1.546875z" fill-rule="nonzero"/><path fill="#000000" fill-opacity="0.0" d="m15.112861 204.53543l14.771653 0l0 32.314957l-14.771653 0z" fill-rule="evenodd"/><path fill="#000000" d="m26.18139 218.00981l-0.921875 0.078125q-0.125 -0.546875 -0.359375 -0.796875q-0.375 -0.40625 -0.9375 -0.40625q-0.4375 0 -0.78125 0.25q-0.4375019 0.328125 -0.7031269 0.953125q-0.25 0.609375 -0.265625 1.75q0.34375 -0.515625 0.828125 -0.765625q0.5000019 -0.25 1.0312519 -0.25q0.9375 0 1.59375 0.703125q0.65625 0.6875 0.65625 1.765625q0 0.71875 -0.3125 1.34375q-0.3125 0.609375 -0.859375 0.9375q-0.53125 0.328125 -1.21875 0.328125q-1.1718769 0 -1.9062519 -0.859375q-0.734375 -0.859375 -0.734375 -2.828125q0 -2.21875 0.8125 -3.21875q0.71875 -0.875 1.9218769 -0.875q0.890625 0 1.46875 0.5q0.578125 0.5 0.6875 1.390625zm-3.812502 3.296875q0 0.484375 0.203125 0.921875q0.203125 0.4375 0.5625019 0.671875q0.375 0.234375 0.78125 0.234375q0.59375 0 1.015625 -0.46875q0.4375 -0.484375 0.4375 -1.3125q0 -0.78125 -0.421875 -1.234375q-0.421875 -0.46875 -1.0625 -0.46875q-0.640625 0 -1.0781269 0.46875q-0.4375 0.453125 -0.4375 1.1875z" fill-rule="nonzero"/></g></svg>