<svg version="1.1" viewBox="0.0 0.0 198.79265091863516 326.0472440944882" fill="none" stroke="none" stroke-linecap="square" stroke-miterlimit="10" xmlns:xlink="http://www.w3.org/1999/xlink" xmlns="http://www.w3.org/2000/svg"><clipPath id="p.0"><path d="m0 0l198.79265 0l0 326.04724l-198.79265 0l0 -326.04724z" clip-rule="nonzero"/></clipPath><g clip-path="url(#p.0)"><path fill="#000000" fill-opacity="0.0" d="m0 0l198.79265 0l0 326.04724l-198.79265 0z" fill-rule="evenodd"/><path fill="#ff9900" d="m25.594772 276.4792l79.00249 0c10.349541 0 18.739502 9.274689 18.739502 20.715576c0 11.440918 -8.389961 20.715607 -18.739502 20.715607l-79.00249 0c-10.34954 0 -18.739498 -9.274689 -18.739498 -20.715607c0 -11.440887 8.389959 -20.715576 18.739498 -20.715576z" fill-rule="evenodd"/><path stroke="#000000" stroke-width="1.0" stroke-linejoin="round" stroke-linecap="butt" d="m25.594772 276.4792l79.00249 0c10.349541 0 18.739502 9.274689 18.739502 20.715576c0 11.440918 -8.389961 20.715607 -18.739502 20.715607l-79.00249 0c-10.34954 0 -18.739498 -9.274689 -18.739498 -20.715607c0 -11.440887 8.389959 -20.715576 18.739498 -20.715576z" fill-rule="evenodd"/><path fill="#93c47d" d="m30.100431 279.99625l69.99158 0c9.16909 0 16.602104 7.699707 16.602104 17.197784c0 9.498077 -7.433014 17.197815 -16.602104 17.197815l-69.99158 0c-9.169086 0 -16.6021 -7.6997375 -16.6021 -17.197815c0 -9.498077 7.433013 -17.197784 16.6021 -17.197784z" fill-rule="evenodd"/><path stroke="#000000" stroke-width="1.0" stroke-linejoin="round" stroke-linecap="butt" d="m30.100431 279.99625l69.99158 0c9.16909 0 16.602104 7.699707 16.602104 17.197784c0 9.498077 -7.433014 17.197815 -16.602104 17.197815l-69.99158 0c-9.169086 0 -16.6021 -7.6997375 -16.6021 -17.197815c0 -9.498077 7.433013 -17.197784 16.6021 -17.197784z" fill-rule="evenodd"/><path fill="#000000" d="m31.598541 300.93402l0 -7.625l5.515625 0l0 0.890625l-4.5 0l0 2.34375l4.21875 0l0 0.890625l-4.21875 0l0 2.59375l4.671875 0l0 0.90625l-5.6875 0zm7.0607605 0l0 -7.625l1.515625 0l1.796875 5.390625q0.25 0.765625 0.375 1.140625q0.125 -0.421875 0.40625 -1.234375l1.828125 -5.296875l1.34375 0l0 7.625l-0.96875 0l0 -6.390625l-2.21875 6.390625l-0.90625 0l-2.203125 -6.5l0 6.5l-0.96875 0zm8.9236145 0l0 -7.625l5.515625 0l0 0.890625l-4.5 0l0 2.34375l4.21875 0l0 0.890625l-4.21875 0l0 2.59375l4.671875 0l0 0.90625l-5.6875 0zm7.1076355 0l0 -7.625l3.375 0q1.015625 0 1.546875 0.203125q0.53125 0.203125 0.84375 0.734375q0.328125 0.515625 0.328125 1.140625q0 0.8125 -0.53125 1.375q-0.515625 0.546875 -1.625 0.703125q0.40625 0.1875 0.609375 0.375q0.453125 0.40625 0.84375 1.015625l1.328125 2.078125l-1.265625 0l-1.015625 -1.59375q-0.4375 -0.6875 -0.734375 -1.046875q-0.28125 -0.359375 -0.515625 -0.5q-0.21875 -0.15625 -0.453125 -0.203125q-0.171875 -0.046875 -0.5625 -0.046875l-1.171875 0l0 3.390625l-1.0 0zm1.0 -4.265625l2.171875 0q0.6875 0 1.078125 -0.140625q0.390625 -0.140625 0.59375 -0.453125q0.203125 -0.3125 0.203125 -0.6875q0 -0.546875 -0.390625 -0.890625q-0.390625 -0.34375 -1.234375 -0.34375l-2.421875 0l0 2.515625zm10.242477 1.28125l0 -0.90625l3.234375 0l0 2.828125q-0.75 0.59375 -1.546875 0.890625q-0.78125 0.296875 -1.609375 0.296875q-1.125 0 -2.046875 -0.46875q-0.921875 -0.484375 -1.390625 -1.390625q-0.46875 -0.921875 -0.46875 -2.046875q0 -1.109375 0.46875 -2.078125q0.46875 -0.96875 1.34375 -1.4375q0.875 -0.46875 2.015625 -0.46875q0.828125 0 1.484375 0.28125q0.671875 0.265625 1.046875 0.75q0.390625 0.46875 0.59375 1.234375l-0.921875 0.25q-0.171875 -0.578125 -0.421875 -0.90625q-0.25 -0.34375 -0.734375 -0.53125q-0.46875 -0.203125 -1.046875 -0.203125q-0.6875 0 -1.203125 0.21875q-0.5 0.203125 -0.8125 0.546875q-0.296875 0.34375 -0.46875 0.75q-0.296875 0.703125 -0.296875 1.53125q0 1.03125 0.34375 1.71875q0.359375 0.671875 1.03125 1.015625q0.671875 0.328125 1.421875 0.328125q0.65625 0 1.28125 -0.25q0.625 -0.25 0.953125 -0.546875l0 -1.40625l-2.25 0zm4.7418976 2.984375l0 -7.625l5.515625 0l0 0.890625l-4.5 0l0 2.34375l4.21875 0l0 0.890625l-4.21875 0l0 2.59375l4.671875 0l0 0.90625l-5.6875 0zm7.0763855 0l0 -7.625l1.03125 0l4.015625 5.984375l0 -5.984375l0.96875 0l0 7.625l-1.046875 0l-4.0 -6.0l0 6.0l-0.96875 0zm13.148727 -2.671875l1.015625 0.25q-0.328125 1.25 -1.15625 1.90625q-0.8125 0.640625 -2.015625 0.640625q-1.234375 0 -2.0 -0.5q-0.765625 -0.5 -1.171875 -1.453125q-0.40625 -0.953125 -0.40625 -2.046875q0 -1.1875 0.453125 -2.078125q0.453125 -0.890625 1.296875 -1.34375q0.84375 -0.46875 1.84375 -0.46875q1.15625 0 1.9375 0.59375q0.78125 0.578125 1.078125 1.640625l-0.984375 0.234375q-0.265625 -0.84375 -0.78125 -1.21875q-0.5 -0.375 -1.265625 -0.375q-0.875 0 -1.46875 0.421875q-0.59375 0.421875 -0.828125 1.140625q-0.234375 0.703125 -0.234375 1.453125q0 0.96875 0.28125 1.703125q0.28125 0.71875 0.875 1.078125q0.59375 0.359375 1.296875 0.359375q0.84375 0 1.4375 -0.484375q0.59375 -0.5 0.796875 -1.453125zm4.3987274 2.671875l0 -3.234375l-2.9375 -4.390625l1.234375 0l1.5 2.296875q0.40625 0.640625 0.765625 1.296875q0.34375 -0.609375 0.84375 -1.359375l1.46875 -2.234375l1.1875 0l-3.046875 4.390625l0 3.234375l-1.015625 0z" fill-rule="nonzero"/><path fill="#ff9900" d="m26.423552 185.38145l82.48416 0c10.805641 0 19.565353 9.274689 19.565353 20.715591c0 11.440903 -8.759712 20.715591 -19.565353 20.715591l-82.48416 0c-10.805648 0 -19.565355 -9.274689 -19.565355 -20.715591c0 -11.440903 8.759707 -20.715591 19.565355 -20.715591z" fill-rule="evenodd"/><path stroke="#000000" stroke-width="1.0" stroke-linejoin="round" stroke-linecap="butt" d="m26.423552 185.38145l82.48416 0c10.805641 0 19.565353 9.274689 19.565353 20.715591c0 11.440903 -8.759712 20.715591 -19.565353 20.715591l-82.48416 0c-10.805648 0 -19.565355 -9.274689 -19.565355 -20.715591c0 -11.440903 8.759707 -20.715591 19.565355 -20.715591z" fill-rule="evenodd"/><path fill="#93c47d" d="m31.127777 188.89851l73.07614 0c9.573166 0 17.333755 7.6997223 17.333755 17.1978c0 9.498077 -7.7605896 17.1978 -17.333755 17.1978l-73.07614 0c-9.573172 0 -17.33376 -7.6997223 -17.33376 -17.1978c0 -9.498077 7.7605877 -17.1978 17.33376 -17.1978z" fill-rule="evenodd"/><path stroke="#000000" stroke-width="1.0" stroke-linejoin="round" stroke-linecap="butt" d="m31.127777 188.89851l73.07614 0c9.573166 0 17.333755 7.6997223 17.333755 17.1978c0 9.498077 -7.7605896 17.1978 -17.333755 17.1978l-73.07614 0c-9.573172 0 -17.33376 -7.6997223 -17.33376 -17.1978c0 -9.498077 7.7605877 -17.1978 17.33376 -17.1978z" fill-rule="evenodd"/><path fill="#000000" d="m30.679459 206.11757q0 -1.890625 1.015625 -2.96875q1.03125 -1.078125 2.640625 -1.078125q1.046875 0 1.890625 0.515625q0.859375 0.5 1.296875 1.40625q0.453125 0.890625 0.453125 2.046875q0 1.15625 -0.46875 2.078125q-0.46875 0.90625 -1.328125 1.375q-0.859375 0.46873474 -1.859375 0.46873474q-1.078125 0 -1.921875 -0.51560974q-0.84375 -0.515625 -1.28125 -1.40625q-0.4375 -0.90625 -0.4375 -1.921875zm1.046875 0.015625q0 1.375 0.734375 2.171875q0.734375 0.796875 1.859375 0.796875q1.140625 0 1.875 -0.796875q0.734375 -0.8125 0.734375 -2.28125q0 -0.921875 -0.3125 -1.609375q-0.3125 -0.703125 -0.921875 -1.078125q-0.609375 -0.390625 -1.359375 -0.390625q-1.078125 0 -1.84375 0.734375q-0.765625 0.734375 -0.765625 2.453125zm7.5543976 3.703125l0 -7.625l2.875 0q0.75 0 1.15625 0.0625q0.5625 0.09375 0.9375 0.359375q0.390625 0.265625 0.609375 0.75q0.234375 0.46875 0.234375 1.03125q0 0.96875 -0.625 1.65625q-0.609375 0.671875 -2.234375 0.671875l-1.953125 0l0 3.09375l-1.0 0zm1.0 -4.0l1.96875 0q0.984375 0 1.390625 -0.359375q0.421875 -0.375 0.421875 -1.03125q0 -0.484375 -0.25 -0.8125q-0.234375 -0.34375 -0.640625 -0.453125q-0.25 -0.078125 -0.9375 -0.078125l-1.953125 0l0 2.734375zm6.1232605 4.0l0 -7.625l5.515625 0l0 0.890625l-4.5 0l0 2.34375l4.21875 0l0 0.890625l-4.21875 0l0 2.59375l4.671875 0l0 0.90625l-5.6875 0zm7.1076355 0l0 -7.625l3.375 0q1.015625 0 1.546875 0.203125q0.53125 0.203125 0.84375 0.734375q0.328125 0.515625 0.328125 1.140625q0 0.8125 -0.53125 1.375q-0.515625 0.546875 -1.625 0.703125q0.40625 0.1875 0.609375 0.375q0.453125 0.40625 0.84375 1.015625l1.328125 2.078125l-1.265625 0l-1.015625 -1.59375q-0.4375 -0.6875 -0.734375 -1.046875q-0.28125 -0.359375 -0.515625 -0.5q-0.21875 -0.15625 -0.453125 -0.203125q-0.171875 -0.046875 -0.5625 -0.046875l-1.171875 0l0 3.390625l-1.0 0zm1.0 -4.265625l2.171875 0q0.6875 0 1.078125 -0.140625q0.390625 -0.140625 0.59375 -0.453125q0.203125 -0.3125 0.203125 -0.6875q0 -0.546875 -0.390625 -0.890625q-0.390625 -0.34375 -1.234375 -0.34375l-2.421875 0l0 2.515625zm5.8362274 4.265625l2.921875 -7.625l1.09375 0l3.125 7.625l-1.15625 0l-0.890625 -2.3125l-3.1875 0l-0.828125 2.3125l-1.078125 0zm2.203125 -3.125l2.578125 0l-0.796875 -2.125q-0.359375 -0.953125 -0.53125 -1.578125q-0.15625 0.734375 -0.421875 1.453125l-0.828125 2.25zm6.8940887 3.125l0 -6.734375l-2.515625 0l0 -0.890625l6.046875 0l0 0.890625l-2.53125 0l0 6.734375l-1.0 0zm4.743637 0l0 -7.625l1.0 0l0 7.625l-1.0 0zm2.4762726 -3.71875q0 -1.890625 1.015625 -2.96875q1.03125 -1.078125 2.640625 -1.078125q1.046875 0 1.890625 0.515625q0.859375 0.5 1.296875 1.40625q0.453125 0.890625 0.453125 2.046875q0 1.15625 -0.46875 2.078125q-0.46875 0.90625 -1.328125 1.375q-0.859375 0.46873474 -1.859375 0.46873474q-1.078125 0 -1.921875 -0.51560974q-0.84375 -0.515625 -1.28125 -1.40625q-0.4375 -0.90625 -0.4375 -1.921875zm1.046875 0.015625q0 1.375 0.734375 2.171875q0.734375 0.796875 1.859375 0.796875q1.140625 0 1.875 -0.796875q0.734375 -0.8125 0.734375 -2.28125q0 -0.921875 -0.3125 -1.609375q-0.3125 -0.703125 -0.921875 -1.078125q-0.609375 -0.390625 -1.359375 -0.390625q-1.078125 0 -1.84375 0.734375q-0.765625 0.734375 -0.765625 2.453125zm7.5387726 3.703125l0 -7.625l1.03125 0l4.015625 5.984375l0 -5.984375l0.96875 0l0 7.625l-1.046875 0l-4.0 -6.0l0 6.0l-0.96875 0zm6.8674774 0l2.921875 -7.625l1.09375 0l3.125 7.625l-1.15625 0l-0.890625 -2.3125l-3.1875 0l-0.828125 2.3125l-1.078125 0zm2.203125 -3.125l2.578125 0l-0.796875 -2.125q-0.359375 -0.953125 -0.53125 -1.578125q-0.15625 0.734375 -0.421875 1.453125l-0.828125 2.25zm5.7013855 3.125l0 -7.625l1.015625 0l0 6.71875l3.75 0l0 0.90625l-4.765625 0z" fill-rule="nonzero"/><path fill="#ff9900" d="m25.594772 103.58942l79.00249 0c10.349541 0 18.739502 9.274689 18.739502 20.715591c0 11.440903 -8.389961 20.715591 -18.739502 20.715591l-79.00249 0c-10.34954 0 -18.739498 -9.274689 -18.739498 -20.715591c0 -11.440903 8.389959 -20.715591 18.739498 -20.715591z" fill-rule="evenodd"/><path stroke="#000000" stroke-width="1.0" stroke-linejoin="round" stroke-linecap="butt" d="m25.594772 103.58942l79.00249 0c10.349541 0 18.739502 9.274689 18.739502 20.715591c0 11.440903 -8.389961 20.715591 -18.739502 20.715591l-79.00249 0c-10.34954 0 -18.739498 -9.274689 -18.739498 -20.715591c0 -11.440903 8.389959 -20.715591 18.739498 -20.715591z" fill-rule="evenodd"/><path fill="#93c47d" d="m30.100431 107.106476l69.99158 0c9.16909 0 16.602104 7.6997147 16.602104 17.197792c0 9.498085 -7.433014 17.197792 -16.602104 17.197792l-69.99158 0c-9.169086 0 -16.6021 -7.699707 -16.6021 -17.197792c0 -9.498077 7.433013 -17.197792 16.6021 -17.197792z" fill-rule="evenodd"/><path stroke="#000000" stroke-width="1.0" stroke-linejoin="round" stroke-linecap="butt" d="m30.100431 107.106476l69.99158 0c9.16909 0 16.602104 7.6997147 16.602104 17.197792c0 9.498085 -7.433014 17.197792 -16.602104 17.197792l-69.99158 0c-9.169086 0 -16.6021 -7.699707 -16.6021 -17.197792c0 -9.498077 7.433013 -17.197792 16.6021 -17.197792z" fill-rule="evenodd"/><path fill="#000000" d="m39.74698 128.04427l0 -7.6249924l1.0 0l0 7.6249924l-1.0 0zm2.7731476 0l0 -7.6249924l1.03125 0l4.015625 5.984375l0 -5.984375l0.96875 0l0 7.6249924l-1.046875 0l-4.0 -5.9999924l0 5.9999924l-0.96875 0zm7.8831024 0l0 -7.6249924l1.0 0l0 7.6249924l-1.0 0zm4.7262726 0l0 -6.7343674l-2.515625 0l0 -0.890625l6.046875 0l0 0.890625l-2.53125 0l0 6.7343674l-1.0 0zm4.743637 0l0 -7.6249924l1.0 0l0 7.6249924l-1.0 0zm1.9450226 0l2.921875 -7.6249924l1.09375 0l3.125 7.6249924l-1.15625 0l-0.890625 -2.3124924l-3.1875 0l-0.828125 2.3124924l-1.078125 0zm2.203125 -3.1249924l2.578125 0l-0.796875 -2.125q-0.359375 -0.953125 -0.53125 -1.578125q-0.15625 0.734375 -0.421875 1.453125l-0.828125 2.25zm5.7013855 3.1249924l0 -7.6249924l1.015625 0l0 6.71875l3.75 0l0 0.9062424l-4.765625 0zm6.1452484 0l0 -7.6249924l1.0 0l0 7.6249924l-1.0 0zm2.1793976 0l0 -0.9374924l3.90625 -4.890625q0.40625 -0.515625 0.78125 -0.90625l-4.25 0l0 -0.890625l5.46875 0l0 0.890625l-4.28125 5.296875l-0.46875 0.53125l4.875 0l0 0.9062424l-6.03125 0zm7.134262 0l0 -7.6249924l5.515625 0l0 0.890625l-4.5 0l0 2.34375l4.21875 0l0 0.890625l-4.21875 0l0 2.59375l4.671875 0l0 0.9062424l-5.6875 0z" fill-rule="nonzero"/><path fill="#000000" fill-opacity="0.0" d="m87.608925 145.96063l0 39.055115" fill-rule="evenodd"/><path stroke="#000000" stroke-width="1.0" stroke-linejoin="round" stroke-linecap="butt" d="m87.608925 145.96063l0 33.055115" fill-rule="evenodd"/><path fill="#000000" stroke="#000000" stroke-width="1.0" stroke-linecap="butt" d="m85.95719 179.01575l1.6517334 4.538101l1.6517334 -4.538101z" fill-rule="evenodd"/><path fill="#000000" fill-opacity="0.0" d="m42.257217 185.80052l-0.7873993 -39.08661" fill-rule="evenodd"/><path stroke="#000000" stroke-width="1.0" stroke-linejoin="round" stroke-linecap="butt" d="m42.257217 185.80052l-0.6665573 -33.08783" fill-rule="evenodd"/><path fill="#000000" stroke="#000000" stroke-width="1.0" stroke-linecap="butt" d="m43.242058 152.67943l-1.7427979 -4.5039062l-1.5599937 4.5704346z" fill-rule="evenodd"/><path fill="#000000" fill-opacity="0.0" d="m65.09491 223.56506l0 56.6929" fill-rule="evenodd"/><path stroke="#000000" stroke-width="1.0" stroke-linejoin="round" stroke-linecap="butt" d="m65.09491 223.56506l0 50.6929" fill-rule="evenodd"/><path fill="#000000" stroke="#000000" stroke-width="1.0" stroke-linecap="butt" d="m63.443176 274.25797l1.6517334 4.5381165l1.6517334 -4.5381165z" fill-rule="evenodd"/><path fill="#ff9900" d="m42.418636 31.257217c0 -12.515554 10.152912 -22.661417 22.677166 -22.661417c6.0143585 0 11.782379 2.387535 16.03518 6.637376c4.2527924 4.2498407 6.641983 10.01386 6.641983 16.02404c0 12.515556 -10.152908 22.661419 -22.677162 22.661419c-12.524254 0 -22.677166 -10.145863 -22.677166 -22.661419z" fill-rule="evenodd"/><path stroke="#000000" stroke-width="1.0" stroke-linejoin="round" stroke-linecap="butt" d="m42.418636 31.257217c0 -12.515554 10.152912 -22.661417 22.677166 -22.661417c6.0143585 0 11.782379 2.387535 16.03518 6.637376c4.2527924 4.2498407 6.641983 10.01386 6.641983 16.02404c0 12.515556 -10.152908 22.661419 -22.677162 22.661419c-12.524254 0 -22.677166 -10.145863 -22.677166 -22.661419z" fill-rule="evenodd"/><path fill="#93c47d" d="m48.292652 31.257217c0 -9.497559 7.5230255 -17.19685 16.80315 -17.19685c4.4564743 0 8.730415 1.8118057 11.881622 5.0368404c3.1511993 3.2250347 4.921524 7.599121 4.921524 12.160009c0 9.497559 -7.5230255 17.19685 -16.803146 17.19685c-9.280125 0 -16.80315 -7.699291 -16.80315 -17.19685z" fill-rule="evenodd"/><path stroke="#000000" stroke-width="1.0" stroke-linejoin="round" stroke-linecap="butt" d="m48.292652 31.257217c0 -9.497559 7.5230255 -17.19685 16.80315 -17.19685c4.4564743 0 8.730415 1.8118057 11.881622 5.0368404c3.1511993 3.2250347 4.921524 7.599121 4.921524 12.160009c0 9.497559 -7.5230255 17.19685 -16.803146 17.19685c-9.280125 0 -16.80315 -7.699291 -16.80315 -17.19685z" fill-rule="evenodd"/><path fill="#000000" d="m62.80793 32.994717l1.203125 -0.109375q0.078125 0.71875 0.390625 1.1875q0.3125 0.453125 0.953125 0.734375q0.65625 0.28125 1.46875 0.28125q0.71875 0 1.265625 -0.21875q0.5625 -0.21875 0.828125 -0.578125q0.265625 -0.375 0.265625 -0.828125q0 -0.453125 -0.265625 -0.78125q-0.25 -0.328125 -0.84375 -0.5625q-0.390625 -0.15625 -1.703125 -0.46875q-1.3125 -0.3125 -1.84375 -0.59375q-0.671875 -0.359375 -1.015625 -0.890625q-0.328125 -0.53125 -0.328125 -1.1875q0 -0.71875 0.40625 -1.34375q0.40625 -0.625 1.1875 -0.953125q0.796875 -0.328125 1.765625 -0.328125q1.046875 0 1.859375 0.34375q0.8125 0.34375 1.25 1.015625q0.4375 0.65625 0.46875 1.484375l-1.203125 0.09375q-0.109375 -0.90625 -0.671875 -1.359375q-0.5625 -0.46875 -1.65625 -0.46875q-1.140625 0 -1.671875 0.421875q-0.515625 0.421875 -0.515625 1.015625q0 0.515625 0.359375 0.84375q0.375 0.328125 1.90625 0.6875q1.546875 0.34375 2.109375 0.59375q0.84375 0.390625 1.234375 0.984375q0.390625 0.578125 0.390625 1.359375q0 0.75 -0.4375 1.4375q-0.421875 0.671875 -1.25 1.046875q-0.8125 0.359375 -1.828125 0.359375q-1.296875 0 -2.171875 -0.375q-0.875 -0.375 -1.375 -1.125q-0.5 -0.765625 -0.53125 -1.71875z" fill-rule="nonzero"/><path fill="#000000" fill-opacity="0.0" d="m40.120735 153.48557l14.771652 0l0 32.314957l-14.771652 0z" fill-rule="evenodd"/><path fill="#000000" d="m51.251762 171.81932l0 0.90625l-5.03125 0q-0.015625 -0.34375 0.109375 -0.65625q0.1875 -0.515625 0.609375 -1.015625q0.421875 -0.5 1.234375 -1.140625q1.234375 -1.03125 1.671875 -1.625q0.4375 -0.59375 0.4375 -1.125q0 -0.5625 -0.40625 -0.9375q-0.390625 -0.390625 -1.03125 -0.390625q-0.671875 0 -1.078125 0.40625q-0.40625 0.40625 -0.40625 1.125l-0.96875 -0.09375q0.09375 -1.078125 0.734375 -1.640625q0.65625 -0.5625 1.734375 -0.5625q1.109375 0 1.75 0.609375q0.640625 0.609375 0.640625 1.5q0 0.46875 -0.1875 0.90625q-0.1875 0.4375 -0.625 0.9375q-0.4375 0.484375 -1.453125 1.328125q-0.828125 0.71875 -1.078125 0.96875q-0.234375 0.25 -0.390625 0.5l3.734375 0z" fill-rule="nonzero"/><path fill="#000000" fill-opacity="0.0" d="m85.35696 149.04068l14.771652 0l0 32.314957l-14.771652 0z" fill-rule="evenodd"/><path fill="#000000" d="m95.09736 168.28069l-0.9375 0l0 -5.96875q-0.34375 0.328125 -0.890625 0.65625q-0.546875 0.3125 -0.984375 0.46875l0 -0.90625q0.796875 -0.359375 1.375 -0.890625q0.59375 -0.53125 0.828125 -1.015625l0.609375 0l0 7.65625z" fill-rule="nonzero"/><path fill="#000000" fill-opacity="0.0" d="m65.097115 239.47507l14.771652 0l0 32.314972l-14.771652 0z" fill-rule="evenodd"/><path fill="#000000" d="m71.32189 256.69943l0.9375 -0.125q0.15625 0.796875 0.546875 1.15625q0.390625 0.34375 0.9375 0.34375q0.65625 0 1.109375 -0.453125q0.46875 -0.46875 0.46875 -1.140625q0 -0.64060974 -0.421875 -1.0624847q-0.421875 -0.421875 -1.078125 -0.421875q-0.265625 0 -0.65625 0.109375l0.109375 -0.828125q0.09375 0.015625 0.140625 0.015625q0.59375 0 1.078125 -0.3125q0.484375 -0.3125 0.484375 -0.96875q0 -0.515625 -0.359375 -0.84375q-0.34375 -0.34375 -0.890625 -0.34375q-0.546875 0 -0.921875 0.34375q-0.359375 0.34375 -0.453125 1.03125l-0.9375 -0.171875q0.171875 -0.9375 0.78125 -1.453125q0.609375 -0.515625 1.5 -0.515625q0.625 0 1.15625 0.265625q0.53125 0.265625 0.796875 0.734375q0.28125 0.453125 0.28125 0.984375q0 0.484375 -0.265625 0.890625q-0.265625 0.40625 -0.78125 0.65625q0.671875 0.15625 1.046875 0.65625q0.375 0.484375 0.375 1.2187347q0 1.0 -0.734375 1.703125q-0.71875 0.6875 -1.828125 0.6875q-1.0 0 -1.671875 -0.59375q-0.65625 -0.609375 -0.75 -1.5625z" fill-rule="nonzero"/><path fill="#000000" fill-opacity="0.0" d="m65.0958 48.454067l0 55.14961" fill-rule="evenodd"/><path stroke="#000000" stroke-width="1.0" stroke-linejoin="round" stroke-linecap="butt" d="m65.0958 48.454067l0 49.14961" fill-rule="evenodd"/><path fill="#000000" stroke="#000000" stroke-width="1.0" stroke-linecap="butt" d="m63.44407 97.603676l1.6517334 4.5380936l1.6517334 -4.5380936z" fill-rule="evenodd"/><path fill="#000000" fill-opacity="0.0" d="m116.694115 297.19403l36.79145 0l0 -172.88188l-36.728462 0" fill-rule="evenodd"/><path stroke="#000000" stroke-width="1.0" stroke-linejoin="round" stroke-linecap="butt" d="m116.694115 297.19403l36.79145 0l0 -172.8819l-30.728462 0" fill-rule="evenodd"/><path fill="#000000" stroke="#000000" stroke-width="1.0" stroke-linecap="butt" d="m122.7571 122.66041l-4.5380936 1.6517334l4.5380936 1.6517334z" fill-rule="evenodd"/><path fill="#000000" fill-opacity="0.0" d="m153.48557 185.01575l14.771652 0l0 32.314957l-14.771652 0z" fill-rule="evenodd"/><path fill="#000000" d="m162.69472 204.25575l0 -1.828125l-3.296875 0l0 -0.859375l3.46875 -4.9375l0.765625 0l0 4.9375l1.03125 0l0 0.859375l-1.03125 0l0 1.828125l-0.9375 0zm0 -2.6875l0 -3.4375l-2.375 3.4375l2.375 0z" fill-rule="nonzero"/></g></svg>